<svg xmlns="http://www.w3.org/2000/svg" xmlns:xlink="http://www.w3.org/1999/xlink" width="20.12" height="20.12" viewBox="0 0 20.12 20.12">
  <defs>
    <clipPath id="clip-path">
      <rect id="Rectangle_7" data-name="Rectangle 7" width="20.12" height="20.12" transform="translate(0 0)" fill="#0f0f0f"/>
    </clipPath>
  </defs>
  <g id="Groupe_156" data-name="Groupe 156" transform="translate(0)">
    <g id="Groupe_82" data-name="Groupe 82" transform="translate(0 0)" clip-path="url(#clip-path)">
      <path id="Tracé_2" data-name="Tracé 2" d="M9.979,1.8c2.658,0,2.976,0,4.027.059a5.406,5.406,0,0,1,1.85.343,3.313,3.313,0,0,1,1.888,1.888,5.406,5.406,0,0,1,.343,1.85c.05,1.051.059,1.369.059,4.027s0,2.976-.059,4.027a5.405,5.405,0,0,1-.343,1.85,3.313,3.313,0,0,1-1.888,1.888,5.405,5.405,0,0,1-1.85.343c-1.051.05-1.365.059-4.027.059s-2.976,0-4.027-.059a5.405,5.405,0,0,1-1.85-.343,3.313,3.313,0,0,1-1.888-1.888,5.405,5.405,0,0,1-.343-1.85c-.05-1.051-.059-1.369-.059-4.027s0-2.976.059-4.027a5.405,5.405,0,0,1,.343-1.85A3.313,3.313,0,0,1,4.1,2.2a5.406,5.406,0,0,1,1.85-.343C7,1.8,7.321,1.8,9.979,1.8m0-1.8c-2.7,0-3.043,0-4.106.059a7.321,7.321,0,0,0-2.42.465,5.065,5.065,0,0,0-2.93,2.93,7.321,7.321,0,0,0-.465,2.42C.012,6.936,0,7.275,0,9.979s0,3.043.059,4.106A7.321,7.321,0,0,0,.523,16.5a5.065,5.065,0,0,0,2.93,2.93,7.321,7.321,0,0,0,2.42.465c1.063.046,1.4.059,4.106.059s3.043,0,4.106-.059a7.321,7.321,0,0,0,2.42-.465,5.065,5.065,0,0,0,2.93-2.93,7.321,7.321,0,0,0,.465-2.42c.046-1.063.059-1.4.059-4.106s0-3.043-.059-4.106a7.321,7.321,0,0,0-.465-2.42A5.065,5.065,0,0,0,16.5.523a7.321,7.321,0,0,0-2.42-.465C13.022.012,12.682,0,9.979,0" transform="translate(0.039 0.163)" fill="#0f0f0f"/>
      <path id="Tracé_3" data-name="Tracé 3" d="M17.3,12.133a5.115,5.115,0,1,0,5.115,5.115A5.115,5.115,0,0,0,17.3,12.133m0,8.434a3.319,3.319,0,1,1,3.319-3.319A3.319,3.319,0,0,1,17.3,20.567Z" transform="translate(-7.283 -7.127)" fill="#0f0f0f"/>
      <path id="Tracé_4" data-name="Tracé 4" d="M37.549,10.483a.93.93,0,1,1-.93-.93.93.93,0,0,1,.93.93" transform="translate(-21.405 -5.577)" fill="#0f0f0f"/>
    </g>
  </g>
</svg>
