<svg id="Groupe_85" data-name="Groupe 85" xmlns="http://www.w3.org/2000/svg" xmlns:xlink="http://www.w3.org/1999/xlink" width="22.877" height="19.992" viewBox="0 0 22.877 19.992">
  <defs>
    <clipPath id="clip-path">
      <rect id="Rectangle_8" data-name="Rectangle 8" width="22.877" height="19.992" fill="none"/>
    </clipPath>
  </defs>
  <g id="Groupe_84" data-name="Groupe 84" transform="translate(0 0)" clip-path="url(#clip-path)">
    <path id="Tracé_5" data-name="Tracé 5" d="M9.72,19.992c-4.806-.7-3.932-17.234-8.17-13.7C.712,7,.19,6.265,0,5.54,1.982,3.2,8.925-3.842,9.773,4.13c.5,1.092,1.211,13.344,4.89,6.678.228-.413.469-.818.71-1.223,1.236-2.072,1.8-5.348-1.76-4.315-.192.064-.5.125-.359-.324A6.529,6.529,0,0,1,16.777.607C22.1-1.826,24.186,3.569,22.05,7.759,19.517,12.239,15.4,19.78,9.72,19.992" transform="translate(0 0)" fill="#132430"/>
  </g>
</svg>
