<svg xmlns="http://www.w3.org/2000/svg" xmlns:xlink="http://www.w3.org/1999/xlink" width="233.905" height="317.767" viewBox="0 0 233.905 317.767">
  <defs>
    <clipPath id="clip-path">
      <rect id="Rectangle_15" data-name="Rectangle 15" width="291.657" height="126.187" fill="#132430"/>
    </clipPath>
    <clipPath id="clip-path-2">
      <rect id="Rectangle_14" data-name="Rectangle 14" width="291.658" height="126.187" fill="#132430"/>
    </clipPath>
  </defs>
  <g id="Groupe_109" data-name="Groupe 109" transform="matrix(-0.407, 0.914, -0.914, -0.407, 233.905, 51.325)" style="isolation: isolate">
    <g id="Groupe_108" data-name="Groupe 108" clip-path="url(#clip-path)">
      <g id="Groupe_107" data-name="Groupe 107">
        <g id="Groupe_106" data-name="Groupe 106" clip-path="url(#clip-path-2)">
          <g id="Groupe_105" data-name="Groupe 105" style="mix-blend-mode: multiply;isolation: isolate">
            <g id="Groupe_104" data-name="Groupe 104">
              <g id="Groupe_103" data-name="Groupe 103" clip-path="url(#clip-path)">
                <path id="Tracé_13" data-name="Tracé 13" d="M291.467,84.322l-3-13.525a8.039,8.039,0,0,0-1.858-3.617c-7.626-8.531-20.99-21.84-23.407-24.239a8.038,8.038,0,0,0-.8-.7L248.408,31.626a8.011,8.011,0,0,0-2.091-1.143c-2.748-1-9.813-3.535-13.89-4.514-15.768-3.784-31.781-6.852-46.965-12.545-8.537-3.2-24.479-9.149-28.523-10.657a7.974,7.974,0,0,0-1.974-.462C150.068,1.8,128.789-.307,117.4.038L56.345,1.885c-5.686.172-15.852,1.553-19.566,2.079a8.02,8.02,0,0,0-2.676.88C29.125,7.524,10.78,17.616,2.378,25.209c-.128.115-.256.245-.384.386a7.939,7.939,0,0,0-.72,9.585l.459.721a8.024,8.024,0,0,0,1.391,1.645L54.659,84.039c10.953,9.882,22.655,20.152,37.12,23.046,8.218,1.644,23.66,1.039,28.534.795a8.007,8.007,0,0,1,2.962.41c8.8,2.963,55.532,18.276,81.109,17.89,11.111-.168,21.967-3.138,32.979-4.625,9.647-1.3,26.355-5.872,32.684-7.657a8.018,8.018,0,0,0,4.135-2.772L289.95,91.009a8.023,8.023,0,0,0,1.518-6.687" transform="translate(0 0)" fill="#132430"/>
              </g>
            </g>
          </g>
        </g>
      </g>
    </g>
  </g>
</svg>
