<svg xmlns="http://www.w3.org/2000/svg" xmlns:xlink="http://www.w3.org/1999/xlink" width="197.288" height="168.24" viewBox="0 0 197.288 168.24">
  <defs>
    <clipPath id="clip-path">
      <rect id="Rectangle_21" data-name="Rectangle 21" width="118.293" height="166.894" fill="#dd4f38"/>
    </clipPath>
  </defs>
  <g id="Groupe_123" data-name="Groupe 123" transform="translate(0 111.159) rotate(-70)" style="isolation: isolate">
    <g id="Groupe_122" data-name="Groupe 122" clip-path="url(#clip-path)">
      <g id="Groupe_121" data-name="Groupe 121">
        <g id="Groupe_120" data-name="Groupe 120" clip-path="url(#clip-path)">
          <g id="Groupe_119" data-name="Groupe 119" style="mix-blend-mode: multiply;isolation: isolate">
            <g id="Groupe_118" data-name="Groupe 118">
              <g id="Groupe_117" data-name="Groupe 117" clip-path="url(#clip-path)">
                <path id="Tracé_15" data-name="Tracé 15" d="M84.572,166.482c15.089-3.3,18.421-21.7,18.421-21.7A321.121,321.121,0,0,0,118.116,62c.3-5.974.413-12.131-1.3-17.757-4.972-16.318-21.9-20.971-34.664-29.353C75.229,10.346,68.97,4.091,61.394,1.405,47.651-3.466,32.514,4.893,23.067,17.744S8.73,47.2,4.34,63.467c-3.4,12.607-6.6,26.585-2.19,38.744,3.442,9.5,10.871,15.941,17.967,21.907L55.4,153.772c8.7,7.317,18.7,15,29.176,12.709" transform="translate(0 0)" fill="#dd4f38"/>
              </g>
            </g>
          </g>
        </g>
      </g>
    </g>
  </g>
</svg>
