<?xml version="1.0" encoding="utf-8"?>
<!-- Generator: Adobe Illustrator 26.0.3, SVG Export Plug-In . SVG Version: 6.00 Build 0)  -->
<svg version="1.1" id="Calque_1" xmlns="http://www.w3.org/2000/svg" xmlns:xlink="http://www.w3.org/1999/xlink" x="0px" y="0px"
	 viewBox="0 0 408 107.4" style="enable-background:new 0 0 408 107.4;" xml:space="preserve">
<style type="text/css">
	.st0{fill:#FFFFFF;}
	.st1{fill:#132430;}
	.st2{fill:#EEBFC0;}
	.st3{fill:#DD4F38;}
	.st4{fill:#E9E4D0;}
</style>
<path class="st0" d="M-861.6,2610.2"/>
<g>
	<g>
		<path class="st1" d="M30.5,15.2V37h-5.1v-2.9c-1.4,2.2-4.2,3.5-6.7,3.5c-6.7,0-11.2-5.3-11.2-11.5S12,14.6,18.7,14.6
			c2.5,0,5.4,1.3,6.7,3.5v-2.9H30.5z M25.4,26.1c0-3.7-2.5-6.9-6.5-6.9c-3.8,0-6.4,3.2-6.4,6.9c0,3.7,2.5,6.9,6.4,6.9
			C22.9,33.1,25.4,29.9,25.4,26.1z"/>
		<path class="st1" d="M60.2,38.1c0,3.6-1.1,6.3-3.1,8s-4.9,2.5-8.6,2.5c-3.6,0-6.3-1.1-8.1-2.8c-1.8-1.7-2.8-3.9-2.9-6.2h5.1
			c0.3,2.3,2.2,4.4,5.8,4.4c4.1,0,6.5-1.7,6.5-5.8v-4c-1.4,2.2-4.2,3.5-6.7,3.5c-6.6,0-11.2-5.3-11.2-11.5s4.5-11.5,11.2-11.5
			c2.5,0,5.4,1.3,6.7,3.5v-2.9H60L60.2,38.1z M42.2,26.1c0,3.7,2.5,6.9,6.4,6.9s6.5-3.2,6.5-6.9c0-3.7-2.5-6.9-6.5-6.9
			C44.8,19.2,42.2,22.4,42.2,26.1z"/>
		<path class="st1" d="M71.8,27.7c0.2,3.1,1.6,5.7,5.8,5.7c2.9,0,4-1.3,4.6-2.9h5.1c-0.6,3.7-4.2,7.1-9.8,7.1
			c-7.3,0-10.9-5.1-10.9-11.5c0-6.6,3.9-11.5,10.8-11.5c5.7,0,10.1,4.3,10.1,9.8c0,0.8,0,1.8-0.2,3.2H71.8V27.7z M71.8,23.9h10.9
			c0-3.3-2.2-5.4-5.3-5.4C74.2,18.5,71.8,20.3,71.8,23.9z"/>
		<path class="st1" d="M94.5,15.2h5.1v3c1.4-2.3,3.9-3.6,7.1-3.6c3.1,0,5.3,1.1,6.5,2.9c1.1,1.6,1.4,3.5,1.4,6.5v13h-5.1V25.8
			c0-3.7-1.1-6.6-4.7-6.6c-3.6,0-5.2,2.9-5.2,6.6v11.3h-5.1V15.2z"/>
		<path class="st1" d="M137.1,23.2c-0.3-2.4-1.7-4-5.1-4c-3.9,0-5.9,3.2-5.9,6.9c0,3.7,1.8,6.9,6.2,6.9c3,0,4.2-1.3,4.9-3.5h5.1
			c-0.7,4.5-4,8-10.3,8c-7.1,0-10.9-5.5-10.9-11.5c0-5.9,3.8-11.5,10.9-11.5c7.1,0,10,4.3,10.3,8.5h-5.2V23.2z"/>
		<path class="st1" d="M152.2,27.7c0.2,3.1,1.6,5.7,5.8,5.7c2.9,0,4-1.3,4.6-2.9h5.1c-0.6,3.7-4.2,7.1-9.8,7.1
			c-7.3,0-10.9-5.1-10.9-11.5c0-6.6,3.9-11.5,10.8-11.5c5.7,0,10.1,4.3,10.1,9.8c0,0.8,0,1.8-0.2,3.2h-15.5V27.7z M152.2,23.9h10.9
			c0-3.3-2.2-5.4-5.3-5.4C154.6,18.5,152.2,20.3,152.2,23.9z"/>
	</g>
	<g>
		<path class="st2" d="M210.2,15.3v21.8h-5.1v-2.9c-1.4,2.2-4.2,3.5-6.7,3.5c-6.6,0-11.2-5.3-11.2-11.5s4.5-11.5,11.2-11.5
			c2.5,0,5.4,1.3,6.7,3.5v-2.9C205.1,15.3,210.2,15.3,210.2,15.3z M205.1,26.2c0-3.7-2.5-6.9-6.5-6.9c-3.8,0-6.4,3.2-6.4,6.9
			c0,3.7,2.5,6.9,6.4,6.9C202.6,33.2,205.1,30,205.1,26.2z"/>
		<path class="st2" d="M232.3,20.1c-0.8-0.2-1.2-0.2-2-0.2c-4.4,0-6.7,2.5-6.7,7.9v9.4h-5.1V15.3h5.1v3.5c1-2,3.8-3.8,6.7-3.8
			c0.8,0,1.5,0.1,2,0.3V20.1z"/>
		<path class="st2" d="M249.6,37.2c-0.8,0.1-2.3,0.3-3.8,0.3c-2.5,0-7.1-0.3-7.1-7.7V19.6H235v-4.3h3.7V8.7h5.1v6.6h5v4.3h-5v9
			c0,3.8,1.2,4.3,3.2,4.3c0.8,0,2.1-0.1,2.6-0.2L249.6,37.2L249.6,37.2z"/>
		<path class="st2" d="M257.9,3.6c2.1,0,3.8,1.7,3.8,3.8s-1.7,3.7-3.8,3.7c-2.1,0-3.7-1.7-3.7-3.7C254.2,5.3,255.8,3.6,257.9,3.6z
			 M255.4,15.3h5.1v21.8h-5.1V15.3z"/>
		<path class="st2" d="M284.6,31.1c0,4.5-3.9,6.6-8.7,6.6c-4.7,0-8.9-2.8-8.9-7.9h5c0,2.9,1.8,3.9,4.2,3.9c2,0,3.6-0.7,3.6-2.5
			c0-2.1-2.2-2.2-6.8-4c-3-1.2-5.2-2.3-5.2-6.1c0-4.1,3.7-6.3,8.2-6.3c4.6,0,8.3,3.1,8.3,7.4h-5c0-2.1-1-3.4-3.5-3.4
			c-1.7,0-3.1,0.8-3.1,2.4c0,1.9,2,2.1,6,3.6C281.7,26,284.6,27.1,284.6,31.1z"/>
		<path class="st2" d="M302.7,37.2c-0.8,0.1-2.3,0.3-3.8,0.3c-2.5,0-7.1-0.3-7.1-7.7V19.6h-3.7v-4.3h3.7V8.7h5.1v6.6h5v4.3h-5v9
			c0,3.8,1.2,4.3,3.2,4.3c0.8,0,2.1-0.1,2.6-0.2L302.7,37.2L302.7,37.2z"/>
		<path class="st2" d="M311,3.6c2.1,0,3.8,1.7,3.8,3.8s-1.7,3.7-3.8,3.7c-2.1,0-3.7-1.7-3.7-3.7C307.3,5.3,309,3.6,311,3.6z
			 M308.5,15.3h5.1v21.8h-5.1V15.3z"/>
		<path class="st2" d="M338.2,15.3h5.1v32.8h-5.1V34.2c-1.4,2.2-4.2,3.5-6.7,3.5c-6.6,0-11.2-5.3-11.2-11.5s4.5-11.5,11.2-11.5
			c2.5,0,5.4,1.3,6.7,3.5V15.3z M325.4,26.2c0,3.7,2.5,6.9,6.4,6.9s6.5-3.2,6.5-6.9c0-3.7-2.5-6.9-6.5-6.9
			C327.9,19.3,325.4,22.5,325.4,26.2z"/>
		<path class="st2" d="M371.3,15.3v21.8h-5.1v-3c-1.4,2.3-3.9,3.6-7.1,3.6c-3.1,0-5.3-1.1-6.6-2.9c-1.1-1.6-1.4-3.5-1.4-6.5v-13h5.1
			v11.3c0,3.7,1.1,6.6,4.7,6.6s5.2-2.9,5.2-6.6V15.3H371.3z"/>
		<path class="st2" d="M383.1,27.8c0.2,3.1,1.6,5.7,5.8,5.7c2.9,0,4-1.3,4.6-2.9h5.1c-0.6,3.7-4.2,7.1-9.8,7.1
			c-7.3,0-10.9-5.1-10.9-11.5c0-6.6,3.9-11.5,10.8-11.5c5.7,0,10.1,4.3,10.1,9.8c0,0.8,0,1.8-0.2,3.2h-15.5V27.8z M383.1,24H394
			c0-3.3-2.2-5.4-5.3-5.4C385.5,18.6,383.1,20.4,383.1,24z"/>
	</g>
	<g>
		<path class="st3" d="M23.7,78.1c-0.3-2.4-1.7-4-5.1-4c-3.9,0-5.8,3.2-5.8,6.9s1.8,6.9,6.2,6.9c3,0,4.2-1.3,4.9-3.5H29
			c-0.7,4.5-4,8-10.3,8c-7.1,0-10.9-5.5-10.9-11.5c0-5.9,3.8-11.5,10.9-11.5s10,4.3,10.3,8.5h-5.3V78.1z"/>
		<path class="st3" d="M33.7,81.1c0-6.2,4.5-11.5,11.5-11.5s11.6,5.3,11.6,11.5s-4.5,11.5-11.6,11.5C38.2,92.5,33.7,87.2,33.7,81.1z
			 M51.6,81.1c0-3.7-2.5-6.9-6.5-6.9c-3.8,0-6.4,3.2-6.4,6.9c0,3.7,2.5,6.9,6.4,6.9C49.1,88,51.6,84.8,51.6,81.1z"/>
		<path class="st3" d="M77.1,74.9c-0.8-0.2-1.2-0.2-2-0.2c-4.4,0-6.7,2.5-6.7,7.9V92h-5.1V70.2h5.1v3.5c1-2,3.8-3.8,6.7-3.8
			c0.8,0,1.5,0.1,2,0.3V74.9z"/>
		<path class="st3" d="M84.9,58.4c2.1,0,3.8,1.7,3.8,3.8c0,2.1-1.7,3.7-3.8,3.7c-2.1,0-3.7-1.7-3.7-3.7
			C81.2,60.1,82.8,58.4,84.9,58.4z M82.4,70.2h5.1V92h-5.1V70.2z"/>
		<path class="st3" d="M95.7,70.2h5.1v3c1.4-2.3,3.9-3.6,7.1-3.6c3.1,0,5.3,1.1,6.6,2.9c1.1,1.6,1.4,3.5,1.4,6.5v13h-5.1V80.7
			c0-3.7-1.1-6.6-4.7-6.6c-3.6,0-5.2,2.9-5.2,6.6V92h-5.1V70.2H95.7z"/>
		<path class="st3" d="M123.8,70.2h5.1v3c1.4-2.3,3.9-3.6,7.1-3.6c3.1,0,5.3,1.1,6.6,2.9c1.1,1.6,1.4,3.5,1.4,6.5v13h-5.1V80.7
			c0-3.7-1.1-6.6-4.7-6.6c-3.6,0-5.2,2.9-5.2,6.6V92h-5.1V70.2H123.8z"/>
		<path class="st3" d="M155.3,82.6c0.2,3.1,1.6,5.7,5.8,5.7c2.9,0,4-1.3,4.6-2.9h5.1c-0.6,3.7-4.2,7.1-9.8,7.1
			c-7.3,0-10.9-5.1-10.9-11.5c0-6.6,3.9-11.5,10.8-11.5c5.7,0,10.1,4.3,10.1,9.8c0,0.8,0,1.8-0.2,3.2L155.3,82.6L155.3,82.6z
			 M155.3,78.8h10.9c0-3.3-2.2-5.4-5.3-5.4C157.7,73.4,155.3,75.3,155.3,78.8z"/>
	</g>
	<g>
		<path class="st4" d="M213.3,93.2c0,3.6-1.1,6.3-3.1,8s-4.9,2.5-8.6,2.5c-3.6,0-6.3-1.1-8.1-2.8s-2.8-3.9-2.9-6.2h5.1
			c0.3,2.3,2.2,4.4,5.8,4.4c4.1,0,6.6-1.7,6.6-5.8v-4c-1.4,2.2-4.2,3.5-6.7,3.5c-6.6,0-11.2-5.3-11.2-11.5s4.5-11.5,11.2-11.5
			c2.5,0,5.4,1.3,6.7,3.5v-2.9h5.1L213.3,93.2z M195.3,81.2c0,3.7,2.5,6.9,6.4,6.9s6.5-3.2,6.5-6.9c0-3.7-2.5-6.9-6.5-6.9
			C197.8,74.3,195.3,77.4,195.3,81.2z"/>
		<path class="st4" d="M223.9,58.5c2.1,0,3.8,1.7,3.8,3.8c0,2.1-1.7,3.7-3.8,3.7c-2.1,0-3.7-1.7-3.7-3.7
			C220.1,60.2,221.8,58.5,223.9,58.5z M221.3,70.3h5.1v21.8h-5.1V70.3z"/>
		<path class="st4" d="M256.1,93.2c0,3.6-1.1,6.3-3.1,8s-4.9,2.5-8.6,2.5c-3.6,0-6.3-1.1-8.1-2.8c-1.8-1.7-2.8-3.9-2.9-6.2h5.1
			c0.3,2.3,2.2,4.4,5.8,4.4c4.1,0,6.6-1.7,6.6-5.8v-4c-1.4,2.2-4.2,3.5-6.7,3.5c-6.6,0-11.2-5.3-11.2-11.5s4.5-11.5,11.2-11.5
			c2.5,0,5.4,1.3,6.7,3.5v-2.9h5.1L256.1,93.2z M238.1,81.2c0,3.7,2.5,6.9,6.4,6.9s6.5-3.2,6.5-6.9c0-3.7-2.5-6.9-6.5-6.9
			C240.7,74.3,238.1,77.4,238.1,81.2z"/>
		<path class="st4" d="M283.9,70.3v21.8h-5.1v-3c-1.4,2.3-3.9,3.6-7.1,3.6c-3.1,0-5.3-1.1-6.6-2.9c-1.1-1.6-1.4-3.5-1.4-6.5v-13h5.1
			v11.3c0,3.7,1.1,6.6,4.7,6.6s5.2-2.9,5.2-6.6V70.3H283.9z"/>
		<path class="st4" d="M295.7,82.7c0.2,3.1,1.6,5.7,5.8,5.7c2.9,0,4-1.3,4.6-2.9h5.1c-0.6,3.7-4.2,7.1-9.8,7.1
			c-7.3,0-10.9-5.1-10.9-11.5c0-6.6,3.9-11.5,10.8-11.5c5.7,0,10.1,4.3,10.1,9.8c0,0.8,0,1.8-0.2,3.2L295.7,82.7L295.7,82.7z
			 M295.6,62.5l2.4-4l11.7,6.4l-2.4,4L295.6,62.5z M295.7,78.9h10.8c0-3.3-2.2-5.4-5.3-5.4C298.1,73.6,295.7,75.4,295.7,78.9z"/>
		<path class="st4" d="M332.3,75c-0.8-0.2-1.2-0.2-2-0.2c-4.4,0-6.7,2.5-6.7,7.9v9.4h-5.1V70.3h5.1v3.5c1-2,3.8-3.8,6.7-3.8
			c0.8,0,1.5,0.1,2,0.3V75z"/>
		<path class="st4" d="M340.6,82.7c0.2,3.1,1.6,5.7,5.8,5.7c2.9,0,4-1.3,4.6-2.9h5.1c-0.6,3.7-4.2,7.1-9.8,7.1
			c-7.3,0-10.9-5.1-10.9-11.5c0-6.6,3.9-11.5,10.8-11.5c5.7,0,10.1,4.3,10.1,9.8c0,0.8,0,1.8-0.2,3.2L340.6,82.7L340.6,82.7z
			 M340.6,78.9h10.9c0-3.3-2.2-5.4-5.3-5.4C343,73.6,340.6,75.4,340.6,78.9z"/>
		<path class="st4" d="M366.5,84.8c2.1,0,3.8,1.7,3.8,3.8s-1.7,3.7-3.8,3.7c-2.1,0-3.7-1.7-3.7-3.7
			C362.7,86.5,364.4,84.8,366.5,84.8z"/>
	</g>
</g>
</svg>
