<?xml version="1.0" encoding="utf-8"?>
<!-- Generator: Adobe Illustrator 26.0.3, SVG Export Plug-In . SVG Version: 6.00 Build 0)  -->
<svg version="1.1" id="Calque_1" xmlns="http://www.w3.org/2000/svg" xmlns:xlink="http://www.w3.org/1999/xlink" x="0px" y="0px"
	 viewBox="0 0 360 356.5" style="enable-background:new 0 0 360 356.5;" xml:space="preserve">
<style type="text/css">
	.st0{fill:#EEBFC0;}
	.st1{fill:#DD4F38;}
	.st2{fill:#E9E4D0;}
	.st3{fill:#132430;}
</style>
<g>
	<path class="st0" d="M48.4,21.3v34.6h-8.2v-4.7c-2.2,3.5-6.7,5.5-10.7,5.5c-10.5,0-17.7-8.4-17.7-18.2S19,20.2,29.5,20.2
		c4,0,8.5,2,10.7,5.5v-4.5H48.4z M40.2,38.6c0-6-4-11-10.2-11c-6,0-10.2,5-10.2,11s4,11,10.2,11S40.2,44.5,40.2,38.6z"/>
	<path class="st0" d="M95.5,57.7c0,5.8-1.8,10-5,12.7c-3.2,2.7-7.9,4-13.5,4c-5.8,0-10-1.8-12.9-4.5c-2.8-2.7-4.3-6.2-4.7-9.9h8.2
		c0.5,3.7,3.3,7,9.4,7c6.5,0,10.4-2.7,10.4-9.4v-6.4c-2.2,3.5-6.7,5.5-10.7,5.5c-10.5,0-17.7-8.4-17.7-18.2s7.2-18.2,17.7-18.2
		c4,0,8.5,2,10.7,5.5v-4.7h8.2V57.7z M67,38.6c0,6,4,11,10.2,11c6.2,0,10.2-5,10.2-11s-4-11-10.2-11C71,27.6,67,32.6,67,38.6z"/>
	<path class="st0" d="M113.9,41c0.3,5,2.5,9,9.4,9c4.7,0,6.4-2,7.4-4.5h8.2c-1,6-6.7,11.4-15.5,11.4c-11.7,0-17.4-8-17.4-18.2
		c0-10.4,6.2-18.2,17-18.2c9,0,16,6.7,16,15.5c0,1.2,0,2.8-0.3,5C138.6,41,113.9,41,113.9,41z M113.9,35h17.2c0-5.3-3.5-8.5-8.4-8.5
		C117.8,26.4,113.9,29.4,113.9,35z"/>
	<path class="st0" d="M150,21.3h8.2v4.8c2.2-3.7,6.2-5.7,11.4-5.7c5,0,8.5,1.8,10.4,4.7c1.7,2.7,2.2,5.5,2.2,10.2v20.6h-8V38
		c0-6-1.7-10.5-7.5-10.5c-5.7,0-8.4,4.5-8.4,10.5v17.9H150V21.3z"/>
	<path class="st0" d="M217.7,34c-0.5-3.8-2.7-6.4-8.2-6.4c-6.2,0-9.4,5.2-9.4,11c0,6,2.8,11,9.9,11c4.7,0,6.7-2,7.7-5.5h8.2
		c-1.2,7.2-6.4,12.9-16.4,12.9c-11.4,0-17.4-8.9-17.4-18.2s6-18.2,17.2-18.2c11.4,0,15.9,6.9,16.4,13.5h-8V34z"/>
	<path class="st0" d="M241.7,41c0.3,5,2.5,9,9.4,9c4.7,0,6.4-2,7.4-4.5h8.2c-1,6-6.7,11.4-15.5,11.4c-11.7,0-17.4-8-17.4-18.2
		c0-10.4,6.2-18.2,17-18.2c9,0,16,6.7,16,15.5c0,1.2,0,2.8-0.3,5C266.5,41,241.7,41,241.7,41z M241.7,35H259c0-5.3-3.5-8.5-8.4-8.5
		C245.6,26.4,241.7,29.4,241.7,35z"/>
	<path class="st1" d="M48.4,108.6v34.6h-8.2v-4.7c-2.2,3.5-6.7,5.5-10.7,5.5c-10.5,0-17.7-8.4-17.7-18.2s7.2-18.2,17.7-18.2
		c4,0,8.5,2,10.7,5.5v-4.7h8.2V108.6z M40.2,125.9c0-6-4-11-10.2-11c-6,0-10.2,5-10.2,11c0,6,4,11,10.2,11
		C36.2,136.9,40.2,131.9,40.2,125.9z"/>
	<path class="st1" d="M83.5,116.2c-1.3-0.3-2-0.3-3.2-0.3c-6.9,0-10.7,4-10.7,12.5v14.9h-8.2v-34.6h8.2v5.5c1.5-3.2,6-6,10.7-6
		c1.3,0,2.3,0.2,3.2,0.5V116.2z"/>
	<path class="st1" d="M110.9,143.2c-1.3,0.2-3.7,0.5-6,0.5c-4,0-11.2-0.5-11.2-12.2v-16.2h-5.8v-6.9h5.8V98.1h8.2v10.5h8v6.9h-8
		v14.2c0,6,1.8,6.9,5,6.9c1.3,0,3.3-0.2,4-0.3L110.9,143.2L110.9,143.2z"/>
	<path class="st1" d="M124.1,89.9c3.3,0,6,2.7,6,6s-2.7,6-6,6c-3.3,0-6-2.7-6-6C118.3,92.6,120.9,89.9,124.1,89.9z M120.1,108.6h8.2
		v34.6h-8.2V108.6z"/>
	<path class="st1" d="M166.5,133.5c0,7.2-6.2,10.5-13.9,10.5c-7.4,0-14.2-4.3-14.2-12.5h7.9c0,4.5,2.8,6.2,6.7,6.2
		c3.2,0,5.7-1,5.7-4c0-3.3-3.5-3.5-10.9-6.4c-4.8-1.8-8.2-3.7-8.2-9.7c0-6.5,6-10,13-10c7.4,0,13.2,5,13.2,11.7H158
		c0-3.3-1.7-5.3-5.5-5.3c-2.7,0-5,1.3-5,3.8c0,3,3.2,3.3,9.5,5.8C161.9,125.5,166.5,127.2,166.5,133.5z"/>
	<path class="st1" d="M195.5,143.2c-1.3,0.2-3.7,0.5-6,0.5c-4,0-11.2-0.5-11.2-12.2v-16.2h-5.8v-6.9h5.8V98.1h8.2v10.5h8v6.9h-8
		v14.2c0,6,1.8,6.9,5,6.9c1.3,0,3.3-0.2,4-0.3L195.5,143.2L195.5,143.2z"/>
	<path class="st1" d="M208.5,89.9c3.3,0,6,2.7,6,6s-2.7,6-6,6s-6-2.7-6-6C202.6,92.6,205.3,89.9,208.5,89.9z M204.5,108.6h8.2v34.6
		h-8.2V108.6z"/>
	<path class="st1" d="M251.8,108.6h8.2v52.1h-8.2v-22.1c-2.2,3.5-6.7,5.5-10.7,5.5c-10.5,0-17.7-8.4-17.7-18.2s7.2-18.2,17.7-18.2
		c4,0,8.5,2,10.7,5.5V108.6z M231.4,125.9c0,6,4,11,10.2,11c6.2,0,10.2-5,10.2-11c0-6-4-11-10.2-11C235.4,115,231.4,120,231.4,125.9
		z"/>
	<path class="st1" d="M304.4,108.6v34.6h-8v-4.8c-2.2,3.7-6.2,5.7-11.4,5.7c-5,0-8.5-1.8-10.4-4.7c-1.7-2.7-2.2-5.5-2.2-10.2v-20.6
		h8v17.9c0,6,1.7,10.5,7.5,10.5c5.7,0,8.4-4.5,8.4-10.5v-17.9H304.4z"/>
	<path class="st1" d="M323.1,128.4c0.3,5,2.5,9,9.4,9c4.7,0,6.4-2,7.4-4.5h8.2c-1,6-6.7,11.4-15.5,11.4c-11.7,0-17.4-8-17.4-18.2
		c0-10.4,6.2-18.2,17-18.2c9,0,16,6.7,16,15.5c0,1.2,0,2.8-0.3,5L323.1,128.4L323.1,128.4z M323.1,122.4h17.2c0-5.3-3.5-8.5-8.4-8.5
		C327,113.8,323.1,116.7,323.1,122.4z"/>
	<path class="st2" d="M37.5,208.6c-0.5-3.8-2.7-6.4-8.2-6.4c-6.2,0-9.4,5.2-9.4,11c0,6,2.8,11,9.9,11c4.8,0,6.7-2,7.7-5.5h8.2
		c-1.2,7.2-6.4,12.9-16.4,12.9c-11.4,0-17.4-8.9-17.4-18.2c0-9.4,6-18.2,17.2-18.2c11.4,0,15.9,6.9,16.4,13.5h-8V208.6z"/>
	<path class="st2" d="M53.2,213.3c0-9.9,7.2-18.2,18.2-18.2c11.2,0,18.4,8.4,18.4,18.2c0,9.9-7.2,18.2-18.4,18.2
		C60.6,231.5,53.2,223.1,53.2,213.3z M81.8,213.3c0-6-4-11-10.2-11s-10.2,5-10.2,11c0,6,4,11,10.2,11S81.8,219.3,81.8,213.3z"/>
	<path class="st2" d="M122.4,203.4c-1.3-0.3-2-0.3-3.2-0.3c-6.9,0-10.7,4-10.7,12.5v14.9h-8v-34.6h8v5.5c1.5-3.2,6-6,10.7-6
		c1.3,0,2.3,0.2,3.2,0.5V203.4z"/>
	<path class="st2" d="M134.8,177.3c3.3,0,6,2.7,6,6c0,3.3-2.7,6-6,6s-6-2.7-6-6C128.8,180,131.5,177.3,134.8,177.3z M130.8,195.9
		h8.2v34.6h-8.2V195.9z"/>
	<path class="st2" d="M152,195.9h8.2v4.8c2.2-3.7,6.2-5.7,11.4-5.7c5,0,8.5,1.8,10.4,4.7c1.7,2.7,2.2,5.5,2.2,10.2v20.6h-8.2v-17.9
		c0-6-1.7-10.5-7.5-10.5c-5.7,0-8.4,4.5-8.4,10.5v17.9h-8.2v-34.6H152z"/>
	<path class="st2" d="M196.5,195.9h8.2v4.8c2.2-3.7,6.2-5.7,11.4-5.7c5,0,8.5,1.8,10.4,4.7c1.7,2.7,2.2,5.5,2.2,10.2v20.6h-8.2
		v-17.9c0-6-1.7-10.5-7.5-10.5c-5.7,0-8.4,4.5-8.4,10.5v17.9h-8V195.9z"/>
	<path class="st2" d="M246.6,215.8c0.3,5,2.5,9,9.4,9c4.7,0,6.4-2,7.4-4.5h8.2c-1,6-6.7,11.4-15.5,11.4c-11.7,0-17.4-8-17.4-18.2
		c0-10.4,6.2-18.2,17-18.2c9,0,16,6.7,16,15.5c0,1.2,0,2.8-0.3,5L246.6,215.8L246.6,215.8z M246.6,209.7h17.2c0-5.3-3.5-8.5-8.4-8.5
		C250.4,201.1,246.6,204.1,246.6,209.7z"/>
	<path class="st3" d="M48.4,319.5c0,5.8-1.8,10-5,12.7c-3.2,2.7-7.9,4-13.5,4c-5.8,0-10-1.8-12.9-4.5c-2.8-2.7-4.3-6.2-4.7-9.9h8.2
		c0.5,3.7,3.3,7,9.4,7c6.5,0,10.4-2.7,10.4-9.4v-6.4c-2.2,3.5-6.7,5.5-10.7,5.5c-10.5,0-17.7-8.4-17.7-18.2s7.2-18.2,17.7-18.2
		c4,0,8.5,2,10.7,5.5v-4.7h8.2V319.5z M19.8,300.7c0,6,4,11,10.2,11s10.2-5,10.2-11s-4-11-10.2-11C23.8,289.6,19.8,294.6,19.8,300.7
		z"/>
	<path class="st3" d="M65.3,264.6c3.3,0,6,2.7,6,6c0,3.3-2.7,6-6,6s-6-2.7-6-6C59.3,267.2,61.9,264.6,65.3,264.6z M61.3,283.3h8.2
		v34.6h-8.2V283.3z"/>
	<path class="st3" d="M116.6,319.5c0,5.8-1.8,10-5,12.7c-3.2,2.7-7.9,4-13.5,4c-5.8,0-10-1.8-12.9-4.5c-2.8-2.7-4.3-6.2-4.7-9.9h8.2
		c0.5,3.7,3.3,7,9.4,7c6.5,0,10.4-2.7,10.4-9.4v-6.4c-2.2,3.5-6.7,5.5-10.7,5.5c-10.5,0-17.7-8.4-17.7-18.2s7.2-18.2,17.7-18.2
		c4,0,8.5,2,10.7,5.5v-4.7h8.2L116.6,319.5z M87.8,300.7c0,6,4,11,10.2,11c6.2,0,10.2-5,10.2-11s-4-11-10.2-11
		C91.9,289.6,87.8,294.6,87.8,300.7z"/>
	<path class="st3" d="M160.7,283.3v34.6h-8V313c-2.2,3.7-6.2,5.7-11.4,5.7c-5,0-8.5-1.8-10.4-4.7c-1.7-2.7-2.2-5.5-2.2-10.2v-20.6
		h8.2v17.9c0,6,1.7,10.5,7.5,10.5c5.7,0,8.4-4.5,8.4-10.5v-17.9L160.7,283.3L160.7,283.3z"/>
	<path class="st3" d="M179.4,303c0.3,5,2.5,9,9.4,9c4.7,0,6.4-2,7.4-4.5h8.2c-1,6-6.7,11.4-15.5,11.4c-11.7,0-17.4-8-17.4-18.2
		c0-10.4,6.2-18.2,17-18.2c9,0,16,6.7,16,15.5c0,1.2,0,2.8-0.3,5L179.4,303L179.4,303z M179.2,270.9l3.8-6.4l18.5,10.2l-3.8,6.4
		L179.2,270.9z M179.4,297h17.2c0-5.3-3.5-8.5-8.4-8.5C183.3,288.5,179.4,291.3,179.4,297z"/>
	<path class="st3" d="M237.6,290.8c-1.3-0.3-2-0.3-3.2-0.3c-6.9,0-10.7,4-10.7,12.5v14.9h-8.2v-34.6h8.2v5.5c1.5-3.2,6-6,10.7-6
		c1.3,0,2.3,0.2,3.2,0.5V290.8z"/>
	<path class="st3" d="M250.8,303c0.3,5,2.5,9,9.4,9c4.7,0,6.4-2,7.4-4.5h8.2c-1,6-6.7,11.4-15.5,11.4c-11.7,0-17.4-8-17.4-18.2
		c0-10.4,6.2-18.2,17-18.2c9,0,16,6.7,16,15.5c0,1.2,0,2.8-0.3,5L250.8,303L250.8,303z M250.8,297H268c0-5.3-3.5-8.5-8.4-8.5
		C254.6,288.5,250.8,291.3,250.8,297z"/>
	<path class="st3" d="M291.9,306.3c3.3,0,6,2.7,6,6c0,3.3-2.7,6-6,6c-3.3,0-6-2.7-6-6C285.9,309,288.5,306.3,291.9,306.3z"/>
</g>
</svg>
